<?xml version="1.0" encoding="UTF-8" standalone="no"?><!DOCTYPE svg PUBLIC "-//W3C//DTD SVG 1.1//EN" "http://www.w3.org/Graphics/SVG/1.1/DTD/svg11.dtd"><svg width="100%" height="100%" viewBox="0 0 8000 1400" version="1.1" xmlns="http://www.w3.org/2000/svg" xmlns:xlink="http://www.w3.org/1999/xlink" xml:space="preserve" xmlns:serif="http://www.serif.com/" style="fill-rule:evenodd;clip-rule:evenodd;stroke-linejoin:round;stroke-miterlimit:2;"><rect id="Artboard1" x="0" y="0" width="8000" height="1400" style="fill:none;"/><g><path d="M830.999,1078.49c-27.393,0 -49.701,-6.764 -66.925,-20.291c-17.225,-13.527 -27.873,-31.705 -31.945,-54.532c-4.072,-22.828 -0.434,-47.938 10.912,-75.331l28.156,-67.975l157.256,-0l-24.794,59.858l413.939,0l52.95,-127.833l-421.04,-0c-27.393,-0 -49.702,-6.764 -66.926,-20.292c-17.224,-13.527 -27.905,-31.625 -32.043,-54.294c-4.137,-22.669 -0.467,-47.859 11.011,-75.569l59.674,-144.066c11.347,-27.393 28.511,-52.504 51.494,-75.331c22.983,-22.828 48.69,-41.005 77.121,-54.533c28.43,-13.527 56.342,-20.291 83.735,-20.291l430.171,0c27.14,0 49.216,6.764 66.229,20.291c17.013,13.528 27.724,31.705 32.134,54.533c4.41,22.827 0.942,47.938 -10.404,75.331l-28.157,67.975l-159.285,-0l24.795,-59.859l-413.939,-0l-52.95,127.834l423.069,-0c27.139,-0 49.216,6.764 66.228,20.291c17.013,13.527 27.758,31.626 32.233,54.295c4.476,22.669 0.975,47.858 -10.503,75.568l-59.674,144.067c-11.347,27.393 -28.68,52.503 -52.001,75.331c-23.322,22.827 -49.092,41.005 -77.311,54.532c-28.219,13.527 -55.899,20.291 -83.038,20.291l-430.172,0Z" style="fill-rule:nonzero;"/><path d="M1523.94,1078.49l302.994,-731.494l157.257,-0l-237.437,573.223l573.223,0l-65.558,158.271l-730.479,0Z" style="fill-rule:nonzero;"/><path d="M2287.9,1078.49l302.574,-730.48l155.227,0l-302.574,730.48l-155.227,0Z" style="fill-rule:nonzero;"/><path d="M2530.38,1078.49l302.575,-730.48l162.329,0l207.149,486.987l201.717,-486.987l159.285,0l-302.575,730.48l-162.329,0l-208.338,-489.016l-202.557,489.016l-157.256,0Z" style="fill-rule:nonzero;"/><path d="M3524.64,1078.49c-27.393,0 -49.701,-6.764 -66.925,-20.291c-17.225,-13.527 -27.873,-31.705 -31.945,-54.532c-4.072,-22.828 -0.434,-47.938 10.912,-75.331l178.183,-430.171c11.347,-27.393 28.511,-52.504 51.494,-75.331c22.983,-22.828 48.69,-41.005 77.12,-54.533c28.431,-13.527 56.343,-20.291 83.736,-20.291l429.157,0c27.393,0 49.701,6.764 66.926,20.291c17.224,13.528 28.041,31.705 32.451,54.533c4.41,22.827 0.942,47.938 -10.404,75.331l-28.577,68.989l-159.285,0l25.215,-60.873l-413.939,-0l-171.459,413.938l413.939,0l45.386,-109.571l-158.271,-0l65.558,-158.271l317.556,-0l-114.306,275.959c-11.347,27.393 -28.68,52.503 -52.002,75.331c-23.321,22.827 -49.196,41.005 -77.627,54.532c-28.431,13.527 -56.343,20.291 -83.736,20.291l-429.157,0Z" style="fill-rule:nonzero;"/><path d="M4364.69,1078.49c-27.393,0 -49.702,-6.764 -66.926,-20.291c-17.224,-13.527 -27.872,-31.705 -31.944,-54.532c-4.072,-22.828 -0.435,-47.938 10.912,-75.331l28.156,-67.975l157.256,-0l-24.794,59.858l413.938,0l52.951,-127.833l-421.041,-0c-27.393,-0 -49.701,-6.764 -66.925,-20.292c-17.225,-13.527 -27.906,-31.625 -32.043,-54.294c-4.138,-22.669 -0.468,-47.859 11.01,-75.569l59.675,-144.066c11.346,-27.393 28.511,-52.504 51.494,-75.331c22.983,-22.828 48.689,-41.005 77.12,-54.533c28.431,-13.527 56.343,-20.291 83.736,-20.291l430.171,0c27.139,0 49.216,6.764 66.228,20.291c17.013,13.528 27.725,31.705 32.135,54.533c4.41,22.827 0.942,47.938 -10.405,75.331l-28.156,67.975l-159.285,-0l24.794,-59.859l-413.938,-0l-52.951,127.834l423.07,-0c27.139,-0 49.215,6.764 66.228,20.291c17.013,13.527 27.757,31.626 32.233,54.295c4.476,22.669 0.975,47.858 -10.503,75.568l-59.674,144.067c-11.347,27.393 -28.681,52.503 -52.002,75.331c-23.321,22.827 -49.091,41.005 -77.31,54.532c-28.22,13.527 -55.899,20.291 -83.039,20.291l-430.171,0Z" style="fill-rule:nonzero;"/><path d="M5057.64,1078.49l302.575,-730.48l157.256,0l-118.508,286.105l431.185,-0l118.509,-286.105l157.256,0l-302.575,730.48l-157.256,0l118.509,-286.104l-431.186,-0l-118.509,286.104l-157.256,0Z" style="fill-rule:nonzero;"/><path d="M7009.64,1078.49l237.017,-572.209l-286.104,-0l65.557,-158.271l730.48,0l-65.558,158.271l-286.104,-0l-237.017,572.209l-158.271,0Z" style="fill-rule:nonzero;"/><path d="M1776.09,1093.66c-1.474,0.46 -175.347,59.3 -303.662,101.912c-64.514,21.424 -305.142,107.066 -382.591,121.301c-329.652,60.591 -491.684,53.047 -522.48,52.001c-91.895,-3.119 -152.285,-14.55 -191.159,-24.744c-2.535,-0.665 -40.381,-12.928 -76.701,-34.006c-112.332,-65.191 -126.116,-162.815 -72.782,-249.2c48.042,-77.813 151.66,-151.708 296.521,-209.234c30.616,-12.158 104.223,-40.083 206.351,-62.869c2.384,-0.532 1.872,1.008 4.01,2.159c-1.158,2.145 0.109,3.138 -2.161,4.004c-20.758,7.917 -239.936,87.365 -371.931,223.576c-57.276,59.105 -83.71,117.363 -62.799,152.944c7.324,12.462 27.876,41.33 109.898,61.549c9.459,2.331 72.307,28.587 224.247,38.217c43.4,2.751 184.837,14.235 449.934,-9.658c53.878,-4.856 196.955,-38.7 366.791,-80.725c28.217,-6.982 325.03,-86.211 328.514,-87.227Zm2642.97,-732.528c57.653,-13.342 115.069,-26.36 172.153,-39.01c81.165,-17.987 122.575,-26.837 145.503,-31.583c-92.587,19.711 -197.75,42.863 -317.656,70.593Zm-726.862,180.61c289.282,-76.206 528.289,-134.687 726.862,-180.61c-240.444,55.642 -485.023,116.914 -726.862,180.61Zm-1225.99,344.923c184.473,-54.533 380.464,-111.588 583.335,-169.003c-201.081,56.91 -402.141,115.479 -583.335,169.003Zm2270.51,-596.126c2.757,-0.587 5.504,-1.171 8.239,-1.752c15.073,-3.201 198.326,-46.299 430.078,-91.429c66.012,-12.855 258.08,-52.106 492.137,-85.199c191.759,-27.113 621.135,-84.802 921.064,-17.384c107.147,24.085 323.853,90.044 353.517,310.426c6.185,45.946 13.244,154.576 -70.737,334.183c-42.041,89.912 -138.45,222.854 -254.317,311.088c-10.82,8.239 -58.808,45.903 -141.969,81.849c-114.79,49.616 -242.885,71.046 -353.623,36.005c-154.703,-48.954 -181.127,-175.825 -186.366,-200.89c-0.038,-0.182 -2.747,-15.355 -3.527,-36.308c-3.226,-86.697 29.05,-163.973 45.555,-199.698c3.572,-7.732 13.245,-24.673 14.453,-26.787c73.983,-129.568 179.965,-211.481 184.917,-215.464c22.258,-17.898 124.347,-100.127 264.45,-143.757c2.105,-0.656 2.084,-0.703 2.275,-0.699c3.436,0.057 3.353,0.792 6.787,0.849c-1.503,1.71 -2.442,3.866 -3.945,5.576c-1.547,1.758 -76.276,40.781 -158.679,126.153c-20.657,21.401 -48.104,51.719 -85.138,103.826c-75.73,106.551 -95.754,190.471 -100.041,204.049c-30.291,95.946 -11.768,145.22 -10.674,150.169c4.395,19.877 12.818,58.458 72.65,81.926c75.323,29.544 199.15,13.646 319.205,-49.043c110.428,-57.664 204.828,-176.334 205.557,-177.218c54.496,-66.105 76.463,-111.18 91.714,-143.262c110.982,-233.466 36.88,-334.977 -34.5,-390.096c-180.078,-139.056 -586.587,-136.007 -775.722,-129.362c-211.887,7.444 -398.695,29.735 -462.514,37.349c-196.503,23.446 -348.557,48.631 -378.748,53.632c-144.055,23.86 -273.843,48.164 -366.838,66.198c-5.007,0.971 -12.08,2.342 -25.26,5.07Zm-1687.17,427.123c14.717,-4.165 29.339,-8.295 43.867,-12.39c-14.657,4.131 -29.28,8.261 -43.867,12.39Zm-1090.31,320.681c125.262,-37.885 303.607,-91.604 506.978,-151.678c-181.637,53.694 -352.106,104.941 -506.978,151.678Zm1134.18,-333.071c194.96,-54.954 395.91,-110.095 598.788,-163.53c-179.464,47.277 -378.277,101.375 -598.788,163.53Zm-1317.32,388.388c22.674,-7.086 45.479,-13.741 68.219,-20.611c37.252,-11.255 75.584,-22.835 114.921,-34.706c-98.085,29.665 -163.621,49.62 -183.14,55.317Z"/><path d="M6485.92,549.493l12.48,52.035l38.603,-2.564l3.782,38.502l53.375,3.804l-27.969,45.619l29.11,25.483l-24.552,29.9l35.053,40.431l-52.035,12.48l2.564,38.603l-38.503,3.782l-3.803,53.376l-45.619,-27.97l-25.483,29.11l-29.9,-24.552l-40.432,35.053l-12.479,-52.035l-38.603,2.565l-3.782,-38.503l-53.376,-3.804l27.97,-45.619l-29.11,-25.483l24.551,-29.9l-35.052,-40.431l52.035,-12.48l-2.565,-38.603l38.503,-3.782l3.804,-53.376l45.619,27.97l25.483,-29.11l29.899,24.552l40.432,-35.053Z"/><path d="M6485.92,549.493l12.48,52.035l38.603,-2.564l3.782,38.502l53.375,3.804l-27.969,45.619l29.11,25.483l-24.552,29.9l35.053,40.431l-52.035,12.48l2.564,38.603l-38.503,3.782l-3.803,53.376l-45.619,-27.97l-25.483,29.11l-29.9,-24.552l-40.432,35.053l-12.479,-52.035l-38.603,2.565l-3.782,-38.503l-53.376,-3.804l27.97,-45.619l-29.11,-25.483l24.551,-29.9l-35.052,-40.431l52.035,-12.48l-2.565,-38.603l38.503,-3.782l3.804,-53.376l45.619,27.97l25.483,-29.11l29.899,24.552l40.432,-35.053Z"/></g></svg>